# xmcd CD database file
#
# Track frame offsets:
#	182
#	36147
#	121420
#	149232
#	153822
#	175182
#	235595
#	251695
#
# Disc length: 3872 seconds
#
# Revision: 1
# Processed by: cddbd v1.5.1PL0 Copyright (c) Steve Scherf et al.
# Submitted via: CDex 1.50
#
DISCID=670f1e08
DTITLE=Jimi Hendrix - The King's Jam [kr 26]
DYEAR=1968
DGENRE=Blues
TTITLE0=Like A Rolling Stone
TTITLE1=Blues Jam No. 1 Part I
TTITLE2=Blues Jam No. 1 Part II
TTITLE3=Band Introduction By BB. King
TTITLE4=Blues Jam No. 2 Part I
TTITLE5=Blues Jam No. 2 Part II
TTITLE6=Blues Jam No. 3
TTITLE7=It's My Own Fault
EXTD=YEAR: 1968
EXTT0=
EXTT1=
EXTT2=
EXTT3=
EXTT4=
EXTT5=
EXTT6=
EXTT7=
PLAYORDER=
